<?xml version="1.0" standalone="no"?>
<!DOCTYPE svg PUBLIC "-//W3C//DTD SVG 20010904//EN"
 "http://www.w3.org/TR/2001/REC-SVG-20010904/DTD/svg10.dtd">
<svg version="1.0" xmlns="http://www.w3.org/2000/svg"
 width="512.000000pt" height="512.000000pt" viewBox="0 0 512.000000 512.000000"
 preserveAspectRatio="xMidYMid meet">

<g transform="translate(0.000000,512.000000) scale(0.100000,-0.100000)"
fill="#000000" stroke="none">
<path d="M0 2560 l0 -2560 2560 0 2560 0 0 2560 0 2560 -2560 0 -2560 0 0
-2560z m2337 1933 c10 -4 13 -58 13 -259 0 -163 -4 -254 -10 -254 -5 0 -120 0
-255 0 -135 0 -249 0 -255 0 -11 0 -15 502 -3 513 7 8 490 8 510 0z m920 0
c10 -4 13 -55 13 -259 0 -163 -4 -254 -10 -254 -5 0 -120 0 -255 0 -135 0
-249 0 -255 0 -16 0 -13 507 3 513 16 7 487 7 504 0z m-466 -937 c301 -45 493
-139 689 -335 189 -190 278 -363 342 -667 20 -96 23 -137 22 -349 0 -263 -9
-333 -65 -518 -184 -602 -713 -916 -1425 -846 -405 39 -719 227 -923 552 -77
122 -142 302 -177 487 -35 188 -29 503 12 709 74 363 292 668 597 831 89 48
251 105 341 120 33 6 84 14 111 19 83 14 373 12 476 -3z"/>
<path d="M2400 3164 c-217 -39 -378 -132 -488 -282 -135 -183 -192 -386 -192
-684 0 -339 90 -591 271 -762 113 -107 226 -162 390 -191 399 -70 746 110 898
465 109 254 120 635 26 916 -87 262 -280 451 -530 519 -58 16 -319 29 -375 19z"/>
</g>
</svg>
