<svg width="600" height="300" viewBox="0 0 600 300" fill="none" xmlns="http://www.w3.org/2000/svg">
<rect width="600" height="300" fill="white"/>
<path d="M144.16 207.92C134.347 207.92 125.707 205.627 118.24 201.04C110.88 196.347 105.12 189.68 100.96 181.04C96.9067 172.4 94.88 162.107 94.88 150.16C94.88 138.107 96.9067 127.76 100.96 119.12C105.12 110.48 110.88 103.867 118.24 99.28C125.707 94.6933 134.347 92.4 144.16 92.4C153.973 92.4 162.56 94.6933 169.92 99.28C177.28 103.867 182.987 110.48 187.04 119.12C191.2 127.653 193.28 138 193.28 150.16C193.28 162.107 191.2 172.4 187.04 181.04C182.987 189.68 177.28 196.347 169.92 201.04C162.56 205.627 153.973 207.92 144.16 207.92ZM144.16 186.32C148.32 186.32 152.053 184.933 155.36 182.16C158.667 179.28 161.28 175.173 163.2 169.84C165.12 164.4 166.08 157.84 166.08 150.16C166.08 142.373 165.12 135.813 163.2 130.48C161.28 125.04 158.667 120.933 155.36 118.16C152.053 115.387 148.32 114 144.16 114C140 114 136.213 115.44 132.8 118.32C129.493 121.093 126.88 125.2 124.96 130.64C123.04 135.973 122.08 142.48 122.08 150.16C122.08 157.84 123.04 164.4 124.96 169.84C126.88 175.173 129.493 179.28 132.8 182.16C136.213 184.933 140 186.32 144.16 186.32ZM249.183 207.92C239.156 207.92 230.463 205.573 223.103 200.88C215.849 196.08 210.196 189.36 206.143 180.72C202.196 171.973 200.223 161.787 200.223 150.16C200.223 138.427 202.249 128.24 206.303 119.6C210.356 110.96 216.116 104.293 223.583 99.6C231.049 94.8 239.903 92.4 250.143 92.4C258.143 92.4 265.503 93.9467 272.223 97.04C278.943 100.133 284.436 104.613 288.703 110.48C293.076 116.347 295.476 123.493 295.903 131.92H267.103C266.569 126.48 264.863 122.16 261.983 118.96C259.103 115.653 255.156 114 250.143 114C245.876 114 241.983 115.387 238.463 118.16C235.049 120.827 232.329 124.88 230.303 130.32C228.383 135.653 227.423 142.267 227.423 150.16C227.423 157.947 228.383 164.56 230.303 170C232.223 175.333 234.783 179.387 237.983 182.16C241.289 184.933 245.023 186.32 249.183 186.32C252.703 186.32 255.743 185.627 258.303 184.24C260.969 182.747 263.103 180.613 264.703 177.84C266.409 175.067 267.423 171.707 267.743 167.76H296.543C295.689 175.973 293.236 183.12 289.183 189.2C285.236 195.173 279.903 199.813 273.183 203.12C266.463 206.32 258.463 207.92 249.183 207.92ZM313.405 206V94.32H339.805V184.4H393.885V206H313.405ZM456.188 207.92C446.481 207.92 438.214 206.213 431.388 202.8C424.561 199.28 419.334 194.373 415.708 188.08C412.081 181.787 410.268 174.427 410.268 166V94.32H436.668V166C436.668 170.16 437.468 173.733 439.068 176.72C440.668 179.707 442.908 182.053 445.788 183.76C448.774 185.36 452.241 186.16 456.188 186.16C460.241 186.16 463.708 185.36 466.588 183.76C469.468 182.053 471.708 179.707 473.308 176.72C474.908 173.733 475.708 170.16 475.708 166V94.32H502.108V166C502.108 174.427 500.294 181.787 496.668 188.08C493.041 194.373 487.814 199.28 480.988 202.8C474.161 206.213 465.894 207.92 456.188 207.92ZM461.628 82.32V58.96H488.188V82.32H461.628ZM423.708 82.32V58.96H450.268V82.32H423.708Z" fill="black"/>
</svg>
